# xmcd
#
# Track frame offsets:
#	150
#	32038
#	48883
#	67276
#	86658
#	108523
#	121640
#	134135
#	154462
#	171411
#	187896
#	201813
#	214779
#	229002
#	252445
#	269497
#
# Disc length: 3915 seconds
#
# Revision: 2
# Processed by: cddbd v1.4PL0 Copyright (c) Steve Scherf et al.
# Submitted via: EasyCDDAExtractor 4.5.0.2
#
DISCID=f10f4910
DTITLE=Bill Craig - Full Of Moon
DYEAR=1999
DGENRE=Folk
TTITLE0=The Vision
TTITLE1=The Bleacher Lassie O' Kelvinhaugh
TTITLE2=The Curragh Of Kildare
TTITLE3=Samrock Shores
TTITLE4=Carrickfergus
TTITLE5=The Rolling Hills Of The Border
TTITLE6=Tarry Flynn
TTITLE7=Sonny's Dream
TTITLE8=I Once Loved A Lass
TTITLE9=Island Clay
TTITLE10=Never Tire Of The Roads
TTITLE11=The Coast Road
TTITLE12=Evangeline
TTITLE13=Westlin Winds
TTITLE14=Jamie Raeburn
TTITLE15=The Last Of The Great Whales
EXTD=
EXTT0=
EXTT1=
EXTT2=
EXTT3=
EXTT4=
EXTT5=
EXTT6=
EXTT7=
EXTT8=
EXTT9=
EXTT10=
EXTT11=
EXTT12=
EXTT13=
EXTT14=
EXTT15=
PLAYORDER=
